<?xml version="1.0" encoding="utf-8"?>
<!-- Generator: Adobe Illustrator 16.0.4, SVG Export Plug-In . SVG Version: 6.00 Build 0)  -->
<!DOCTYPE svg PUBLIC "-//W3C//DTD SVG 1.1//EN" "http://www.w3.org/Graphics/SVG/1.1/DTD/svg11.dtd">
<svg version="1.1" id="Layer_1" xmlns="http://www.w3.org/2000/svg" xmlns:xlink="http://www.w3.org/1999/xlink" x="0px" y="0px"
	 width="50px" height="50px" viewBox="0 0 50 50" enable-background="new 0 0 50 50" xml:space="preserve">
<path d="M36.042,11.099c-2.059-2.299-4.78-4.433-11.504-4.48c-2.629-0.021-6.639,0.601-9.76,3.901
	c-1.889,1.993-3.28,4.511-2.884,8.627c0.087,0.893,1.362,1.926,0.465,3.65c0,0-1.925,3.387-1.858,3.95c0,0-0.033,1.031,1.561,1.063
	c0,0,0.398,0.052,0.283,0.93l-0.018,1.28c0,0,0.049,0.381,0.748,0.612c0,0,0.132,0.133-0.066,0.384c0,0-0.368,0.409,0.264,1.294
	c0.234,0.323,0.614,0.729,0.382,1.562c0,0-0.298,1.608,0.333,1.992c0,0,0.717,0.852,3.602,0.496
	c1.009-0.124,2.873-0.613,3.984,0.782c0,0,2.654,5.045,2.857,6.239c0,0,4.531-8.067,10.061-9.312c0,0-1.348-3.038,1.394-6.973
	c0,0,3.435-4.532,3.537-7.022C39.421,20.074,40.328,15.879,36.042,11.099z M29.057,21.661c-2.067-0.887-2.64-3.245-5.89-2.912
	c-3.851,0.396-5.851,0.124-6.855-0.567c0.593-0.734,1.469-1.57,2.572-1.9c0.984-0.294,2.018-0.136,3.074,0.472
	c0.238,0.139,0.545,0.056,0.683-0.184s0.056-0.545-0.184-0.684c-1.305-0.752-2.605-0.941-3.865-0.562
	c-1.277,0.384-2.274,1.283-2.958,2.1c-0.355-0.725-0.261-1.663-0.101-2.704c0.513-3.323,4.933-5.543,10.298-5.158
	c4.117,0.292,7.748,2.335,9.441,5.132c-0.417-0.169-0.866-0.284-1.347-0.273c-1.151,0.035-2.173,0.735-3.037,2.083
	c-0.148,0.233-0.082,0.542,0.151,0.691c0.232,0.147,0.542,0.081,0.69-0.151c0.675-1.052,1.422-1.598,2.224-1.623
	c0.769-0.013,1.495,0.425,2.043,0.881c0.111,0.367,0.204,0.738,0.249,1.12C36.87,22.673,32.333,23.07,29.057,21.661z"/>
</svg>
