<?xml version="1.0" encoding="utf-8"?>
<!-- Generator: Adobe Illustrator 16.0.4, SVG Export Plug-In . SVG Version: 6.00 Build 0)  -->
<!DOCTYPE svg PUBLIC "-//W3C//DTD SVG 1.1//EN" "http://www.w3.org/Graphics/SVG/1.1/DTD/svg11.dtd">
<svg version="1.1" id="Capa_1" xmlns:svg="http://www.w3.org/2000/svg"
	 xmlns="http://www.w3.org/2000/svg" xmlns:xlink="http://www.w3.org/1999/xlink" x="0px" y="0px" width="100px" height="60px"
	 viewBox="0 0 100 60" enable-background="new 0 0 100 60" xml:space="preserve">
<polygon points="25,35.5 25,47.5 50,60 75,47.5 75,35.5 50,47.5 "/>
<path d="M100,20L50,0L0,20l50,25L100,20z M46,20c0-1.378,1.795-2.5,4-2.5s4,1.122,4,2.5s-1.795,2.5-4,2.5S46,21.378,46,20z"/>
<path d="M7.5,45.347V26.25C7.5,25.56,6.94,25,6.25,25S5,25.56,5,26.25v19.097c-0.744,0.433-1.25,1.23-1.25,2.153
	S4.256,49.221,5,49.653v4.097C5,54.44,5.56,55,6.25,55s1.25-0.56,1.25-1.25v-4.097c0.744-0.433,1.25-1.23,1.25-2.153
	S8.244,45.779,7.5,45.347z"/>
</svg>
