<?xml version="1.0" encoding="utf-8"?>
<!-- Generator: Adobe Illustrator 17.0.2, SVG Export Plug-In . SVG Version: 6.00 Build 0)  -->
<!DOCTYPE svg PUBLIC "-//W3C//DTD SVG 1.1//EN" "http://www.w3.org/Graphics/SVG/1.1/DTD/svg11.dtd">
<svg version="1.1" id="Capa_1" xmlns="http://www.w3.org/2000/svg" xmlns:xlink="http://www.w3.org/1999/xlink" x="0px" y="0px"
	 width="64px" height="64px" viewBox="0 0 64 64" enable-background="new 0 0 64 64" xml:space="preserve">
<g>
	<polygon points="42.231,11.153 46.863,12.414 45.829,7.075 	"/>
	<polygon points="35.953,28 44.356,28 47.421,16.744 39.599,14.614 	"/>
	<path d="M17.458,20.77c-0.819,0.395-1.812,0.461-2.606,0.461c-0.407,0-0.866-0.022-1.36-0.062L14.904,28h4.048L17.458,20.77z"/>
	<rect x="26" y="5" width="8" height="23"/>
	<path d="M12,55.672C12,58.337,14.833,62,17.499,62c0,0,0.001,0,0.001,0H45.5l0.001,0c2.666-0.001,3.5-3.662,3.5-6.328V29h-4.916
		h-8.403H35h-1h-8h-1h-5.841h-4.048H12V55.672z"/>
	<path d="M13.5,20.167c0.31,0.026,0.597,0.042,0.874,0.052c0.163,0.006,0.327,0.012,0.478,0.012c1.094,0,1.871-0.166,2.385-0.502
		c1.952-1.276-0.112-5.143-5.07-12.978C12.167,6.75,6.667,19.583,13.5,20.167z"/>
</g>
</svg>
