<?xml version="1.0" encoding="iso-8859-1"?>
<!-- Generator: Adobe Illustrator 16.0.0, SVG Export Plug-In . SVG Version: 6.00 Build 0)  -->
<!DOCTYPE svg PUBLIC "-//W3C//DTD SVG 1.1//EN" "http://www.w3.org/Graphics/SVG/1.1/DTD/svg11.dtd">
<svg version="1.1" id="Capa_1" xmlns="http://www.w3.org/2000/svg" xmlns:xlink="http://www.w3.org/1999/xlink" x="0px" y="0px"
	 width="29.533px" height="29.534px" viewBox="0 0 29.533 29.534" style="enable-background:new 0 0 29.533 29.534;"
	 xml:space="preserve">
<path d="M14.768,0C6.609,0,0,6.609,0,14.768c0,8.155,6.609,14.767,14.768,14.767s14.766-6.612,14.766-14.767
	C29.533,6.609,22.926,0,14.768,0z M14.768,27.126c-6.826,0-12.359-5.532-12.359-12.359c0-6.828,5.533-12.362,12.359-12.362
	S27.127,7.94,27.127,14.768C27.127,21.594,21.594,27.126,14.768,27.126z"/>
<polygon points="16.338,17.962 16.938,5.601 12.625,5.601 13.227,17.962 "/>
<path d="M14.781,19.323c-1.445,0-2.455,1.011-2.455,2.485c0,1.418,0.982,2.482,2.398,2.482h0.057c1.473,0,2.428-1.064,2.428-2.482
	C17.182,20.334,16.227,19.323,14.781,19.323z"/>
<g>
</g>
<g>
</g>
<g>
</g>
<g>
</g>
<g>
</g>
<g>
</g>
<g>
</g>
<g>
</g>
<g>
</g>
<g>
</g>
<g>
</g>
<g>
</g>
<g>
</g>
<g>
</g>
<g>
</g>
</svg>
