<?xml version="1.0" encoding="utf-8"?>
<!-- Generator: Adobe Illustrator 16.0.4, SVG Export Plug-In . SVG Version: 6.00 Build 0)  -->
<!DOCTYPE svg PUBLIC "-//W3C//DTD SVG 1.1//EN" "http://www.w3.org/Graphics/SVG/1.1/DTD/svg11.dtd">
<svg version="1.1" id="Layer_1" xmlns="http://www.w3.org/2000/svg" xmlns:xlink="http://www.w3.org/1999/xlink" x="0px" y="0px"
	 width="50px" height="50px" viewBox="0 0 50 50" enable-background="new 0 0 50 50" xml:space="preserve">
<path d="M36.762,12.619v0.828h-1.818v-0.828H15.054v0.828h-1.817v-0.828H12v24.762h1.238v-0.828h1.817v0.828h19.888v-0.828h1.818
	v0.828H38V12.619H36.762L36.762,12.619z M15.056,33.91h-1.818l0.001-1.449h1.817V33.91z M15.056,29.816h-1.817v-1.447l1.817,0.002
	V29.816z M15.056,25.723h-1.817V24.28h1.817V25.723z M15.056,21.631h-1.817v-1.447h1.817V21.631z M15.056,17.539h-1.817v-1.445
	l1.817-0.002V17.539z M33.047,37.07H16.952l-0.001-4.332h16.096V37.07z M33.047,30.57l-16.095,0.002l-0.001-11.146h16.096V30.57z
	 M33.047,17.262H16.952v-4.334h16.095V17.262z M36.762,33.908h-1.816v-1.447h1.816V33.908z M36.762,29.816h-1.818v-1.447h1.818
	V29.816z M36.762,25.723h-1.816V24.28h1.816V25.723z M36.762,21.631l-1.816-0.002v-1.447h1.816V21.631z M36.762,17.539h-1.816
	v-1.445l1.816-0.002V17.539z"/>
</svg>
