<?xml version="1.0" encoding="utf-8"?>
<!-- Generator: Adobe Illustrator 16.0.0, SVG Export Plug-In . SVG Version: 6.00 Build 0)  -->
<!DOCTYPE svg PUBLIC "-//W3C//DTD SVG 1.1//EN" "http://www.w3.org/Graphics/SVG/1.1/DTD/svg11.dtd">
<svg version="1.1" id="Layer_1" xmlns="http://www.w3.org/2000/svg" xmlns:xlink="http://www.w3.org/1999/xlink" x="0px" y="0px"
	 width="100px" height="100px" viewBox="0 0 100 100" enable-background="new 0 0 100 100" xml:space="preserve">
<path d="M62.927,37.629l0.001-0.215c0.021-2.504-0.644-4.367-1.976-5.538c-1.665-1.462-3.726-1.238-3.909-1.214
	c-0.013,0-0.023-0.007-0.036-0.007H42.889c-0.403-0.04-2.291-0.141-3.841,1.221c-1.332,1.171-1.997,3.034-1.976,5.539l0.001,0.219
	c0.002,1.167,0.008,3.027,2.01,4.511c-0.645,1.204-0.991,2.556-0.991,4.009c0,4.045,5.459,9.063,9.182,12.015
	c-0.906,1.396-1.835,2.154-2.658,2.154c-0.553,0-1,0.447-1,1s0.447,1,1,1h10.623c0.553,0,1-0.447,1-1s-0.447-1-1-1
	c-0.821,0-1.751-0.758-2.659-2.153c3.723-2.951,9.181-7.97,9.181-12.016c0-1.423-0.333-2.747-0.952-3.931
	C62.919,40.725,62.927,38.817,62.927,37.629z M44.979,37.479c-1.976,0.669-3.58,1.712-4.745,3.024
	c-1.147-0.875-1.159-1.85-1.161-2.874l-0.001-0.233c-0.016-1.884,0.414-3.23,1.279-4.003c1.001-0.896,2.336-0.748,2.363-0.747
	c0.022,0.003,0.042-0.006,0.064-0.004c0.022,0.001,0.042,0.013,0.064,0.013c1.838,0,3.334,1.225,3.334,2.73
	C46.178,36.197,45.742,36.955,44.979,37.479z M58.197,47.468c-0.069,0.015-0.14,0.021-0.208,0.021c-0.463,0-0.878-0.322-0.978-0.793
	c-0.71-3.351-3.328-3.857-3.439-3.877c-0.54-0.098-0.905-0.612-0.813-1.153s0.597-0.912,1.141-0.82
	c0.166,0.026,4.067,0.709,5.069,5.437C59.083,46.822,58.738,47.354,58.197,47.468z M60.927,37.628c0,1.053,0,2.055-1.246,2.949
	c-1.165-1.341-2.782-2.407-4.781-3.089c-0.017-0.009-0.034-0.018-0.052-0.025c-0.748-0.523-1.175-1.274-1.175-2.077
	c0-1.506,1.496-2.73,3.334-2.73c0.036,0,0.067-0.017,0.102-0.021c0.059,0.003,0.114,0.02,0.175,0.012
	c0.015-0.001,1.356-0.153,2.363,0.747c0.865,0.772,1.295,2.119,1.279,4.004L60.927,37.628z"/>
</svg>
