<?xml version="1.0" encoding="utf-8"?>
<!-- Generator: Adobe Illustrator 16.0.0, SVG Export Plug-In . SVG Version: 6.00 Build 0)  -->
<!DOCTYPE svg PUBLIC "-//W3C//DTD SVG 1.1//EN" "http://www.w3.org/Graphics/SVG/1.1/DTD/svg11.dtd">
<svg version="1.1" id="Layer_1" xmlns="http://www.w3.org/2000/svg" xmlns:xlink="http://www.w3.org/1999/xlink" x="0px" y="0px"
	 width="100px" height="100px" viewBox="0 0 100 100" enable-background="new 0 0 100 100" xml:space="preserve">
<g>
	<g>
		<path d="M46.435,45.247h13.117c3.649,0,6.617-2.968,6.617-6.617c0-2.486-1.379-4.653-3.411-5.784
			c1.145-0.936,1.892-2.34,1.892-3.931c0-2.751-2.195-4.986-4.924-5.081c-0.011-0.228-0.079-0.45-0.234-0.623
			c-0.189-0.211-0.46-0.333-0.745-0.333H47.685c-0.284,0-0.555,0.121-0.745,0.333c-0.189,0.211-0.28,0.494-0.25,0.776l0.878,8.024
			h-1.134c-3.649,0-6.617,2.968-6.617,6.617C39.818,42.278,42.786,45.247,46.435,45.247z M62.65,28.915
			c0,1.708-1.39,3.098-3.098,3.098c-0.227,0-0.455-0.029-0.68-0.083l0.669-6.111c0.003,0,0.008-0.001,0.011-0.001
			C61.261,25.817,62.65,27.207,62.65,28.915z"/>
	</g>
	<g>
		<path d="M59.632,46.504c0-0.552-0.448-1-1-1H47.685c-0.552,0-1,0.448-1,1c0,0.324,0.164,0.599,0.403,0.781
			c-0.239,0.183-0.403,0.458-0.403,0.781c0,0.552,0.448,1,1,1h10.947c0.552,0,1-0.448,1-1c0-0.324-0.164-0.599-0.403-0.781
			C59.468,47.103,59.632,46.828,59.632,46.504z"/>
	</g>
	<g>
		<path d="M65.169,49.567H40.818c-0.552,0-1,0.448-1,1v4.742c0,0.552,0.448,1,1,1h24.352c0.552,0,1-0.448,1-1v-4.742
			C66.169,50.015,65.722,49.567,65.169,49.567z"/>
	</g>
	<g>
		<path d="M66.169,58.629c0-0.552-0.448-1-1-1H40.818c-0.552,0-1,0.448-1,1s0.448,1,1,1c-0.552,0-1,0.448-1,1s0.448,1,1,1
			c-0.552,0-1,0.448-1,1s0.448,1,1,1h2.555v9.25c0,0.552,0.448,1,1,1s1-0.448,1-1v-9.25h15.875v9.25c0,0.552,0.448,1,1,1
			s1-0.448,1-1v-9.25h1.922c0.552,0,1-0.448,1-1s-0.448-1-1-1c0.552,0,1-0.448,1-1s-0.448-1-1-1
			C65.722,59.629,66.169,59.182,66.169,58.629z"/>
	</g>
	<g>
		<path d="M53.159,64.692c-0.552,0-1,0.448-1,1v7.188c0,0.552,0.448,1,1,1s1-0.448,1-1v-7.188
			C54.159,65.14,53.711,64.692,53.159,64.692z"/>
	</g>
	<g>
		<path d="M50.159,64.692c-0.552,0-1,0.448-1,1v7.188c0,0.552,0.448,1,1,1s1-0.448,1-1v-7.188
			C51.159,65.14,50.711,64.692,50.159,64.692z"/>
	</g>
	<g>
		<path d="M47.159,64.692c-0.552,0-1,0.448-1,1v7.188c0,0.552,0.448,1,1,1s1-0.448,1-1v-7.188
			C48.159,65.14,47.711,64.692,47.159,64.692z"/>
	</g>
	<g>
		<path d="M56.159,64.692c-0.552,0-1,0.448-1,1v7.188c0,0.552,0.448,1,1,1s1-0.448,1-1v-7.188
			C57.159,65.14,56.711,64.692,56.159,64.692z"/>
	</g>
	<g>
		<path d="M59.159,64.692c-0.552,0-1,0.448-1,1v7.188c0,0.552,0.448,1,1,1s1-0.448,1-1v-7.188
			C60.159,65.14,59.711,64.692,59.159,64.692z"/>
	</g>
</g>
</svg>
