<?xml version="1.0" encoding="iso-8859-1"?>
<!-- Generator: Adobe Illustrator 17.0.0, SVG Export Plug-In . SVG Version: 6.00 Build 0)  -->
<!DOCTYPE svg PUBLIC "-//W3C//DTD SVG 1.1//EN" "http://www.w3.org/Graphics/SVG/1.1/DTD/svg11.dtd">
<svg version="1.1" id="Capa_1" xmlns="http://www.w3.org/2000/svg" xmlns:xlink="http://www.w3.org/1999/xlink" x="0px" y="0px"
	 width="64px" height="64px" viewBox="0 0 64 64" style="enable-background:new 0 0 64 64;" xml:space="preserve">
<g>
	<path d="M15.617,47.676l0.737-0.63c0,0-0.692-7.75,3.71-8.137c0,0,0.063-1.615,0.943-2.131s-0.503-2.971,1.195-3.746
		c1.698-0.775,0.726-1.615,2.564-2.777c1.838-1.162,1.146-3.81,1.146-3.81s-2.327-5.166-0.692-6.91c1.635-1.744,0-0.258,0-0.258
		s0.063-2.577,1.069-3.064c0,0,1.462-4.282,4.944-3.87c0,0,5.63-0.686,5.971,8.032c0.341,8.718,2.982,9.881,3.423,10.204
		c0.44,0.323,4.088,2.906,5.094,11.56c0,0,2.453,1.615,0.44,5.425c0,0,0.126,7.631-0.44,8.562h2.654V7.5H15.617V47.676z"/>
	<path d="M10.443,62.125h43.114V1.875H10.443V62.125z M13.443,4.875h37.114v54.25H13.443V4.875z"/>
</g>
</svg>
