<?xml version="1.0" encoding="utf-8"?>
<!-- Generator: Adobe Illustrator 17.0.0, SVG Export Plug-In . SVG Version: 6.00 Build 0)  -->
<!DOCTYPE svg PUBLIC "-//W3C//DTD SVG 1.1//EN" "http://www.w3.org/Graphics/SVG/1.1/DTD/svg11.dtd">
<svg version="1.1" id="Capa_1" xmlns="http://www.w3.org/2000/svg" xmlns:xlink="http://www.w3.org/1999/xlink" x="0px" y="0px"
	 width="64px" height="64px" viewBox="0 0 64 64" enable-background="new 0 0 64 64" xml:space="preserve">
<path d="M32,62c16.569,0,30-13.431,30-30S48.569,2,32,2S2,15.431,2,32S15.431,62,32,62z M21.749,21.181
	c0.236-0.137,0.494-0.202,0.749-0.202c0.518,0,1.023,0.269,1.301,0.749l8.626,7.914l15.536-15.536
	c0.293-0.293,0.677-0.439,1.061-0.439s0.768,0.146,1.061,0.439c0.586,0.585,0.586,1.536,0,2.121L33.165,33.144
	c-0.006,0.006-0.014,0.008-0.02,0.013c-0.086,0.084-0.181,0.161-0.29,0.224c-0.041,0.024-0.086,0.034-0.129,0.053
	c-0.042,0.019-0.081,0.036-0.124,0.052c-0.163,0.058-0.33,0.097-0.497,0.097c-0.173,0-0.34-0.04-0.501-0.098
	c-0.04-0.014-0.077-0.029-0.116-0.047c-0.161-0.073-0.312-0.165-0.441-0.293c-0.001-0.001-0.002-0.001-0.003-0.002
	c-0.004-0.004-0.005-0.01-0.009-0.014c-0.086-0.088-0.165-0.185-0.229-0.296l-9.604-9.604
	C20.787,22.513,21.032,21.595,21.749,21.181z"/>
</svg>
