<?xml version="1.0" encoding="utf-8"?>
<!-- Generator: Adobe Illustrator 17.0.2, SVG Export Plug-In . SVG Version: 6.00 Build 0)  -->
<!DOCTYPE svg PUBLIC "-//W3C//DTD SVG 1.1//EN" "http://www.w3.org/Graphics/SVG/1.1/DTD/svg11.dtd">
<svg version="1.1" id="Capa_1" xmlns="http://www.w3.org/2000/svg" xmlns:xlink="http://www.w3.org/1999/xlink" x="0px" y="0px"
	 width="64px" height="64px" viewBox="0 0 64 64" enable-background="new 0 0 64 64" xml:space="preserve">
<g>
	<path d="M5.269,62.312h53.462c2.109,0,3.825-1.716,3.825-3.825V8.512c0-2.109-1.716-3.825-3.825-3.825H5.269
		c-2.109,0-3.825,1.716-3.825,3.825v49.976C1.444,60.597,3.16,62.312,5.269,62.312z M59.556,58.488c0,0.455-0.37,0.825-0.825,0.825
		H5.269c-0.455,0-0.825-0.37-0.825-0.825V23.535h55.111V58.488z M37.214,14.861c0,2.88-2.334,5.214-5.214,5.214
		s-5.214-2.334-5.214-5.214S29.12,9.647,32,9.647S37.214,11.982,37.214,14.861z"/>
	<path d="M18.675,55.795h8.021h1.263h9.284v-8.767h0.062h8.021h1.263h9.284v-8.767v-1.78v-8.767h-9.284h-1.263h-8.021h-1.263h-9.284
		v8.767h-8.083h-1.263H8.128v8.767v1.78v8.767h9.284H18.675z M26.458,54.295h-7.547v-7.267h7.547V54.295z M35.804,38.261v6.987
		h-7.546v-6.987H35.804z M35.742,54.295h-7.546v-7.267h7.546V54.295z M45.088,45.528h-7.547v-7.267h7.547V45.528z M54.372,45.528
		h-7.547v-7.267h7.547V45.528z M46.825,29.214h7.547v7.267h-7.547V29.214z M37.542,29.214h7.547v7.267h-7.547V29.214z
		 M28.258,29.214h7.546v7.267h-7.546V29.214z M18.912,37.981h7.547v7.267h-7.547V37.981z M9.628,37.981h7.547v7.267H9.628V37.981z
		 M17.175,54.295H9.628v-7.267h7.547V54.295z"/>
	<path d="M32,11.737c-1.723,0-3.125,1.402-3.125,3.125s1.402,3.125,3.125,3.125s3.125-1.402,3.125-3.125S33.723,11.737,32,11.737z
		 M32,16.986c-1.173,0-2.125-0.951-2.125-2.125s0.951-2.125,2.125-2.125s2.125,0.951,2.125,2.125S33.173,16.986,32,16.986z"/>
</g>
</svg>
