<?xml version="1.0" encoding="iso-8859-1"?>
<!-- Generator: Adobe Illustrator 16.0.0, SVG Export Plug-In . SVG Version: 6.00 Build 0)  -->
<!DOCTYPE svg PUBLIC "-//W3C//DTD SVG 1.1//EN" "http://www.w3.org/Graphics/SVG/1.1/DTD/svg11.dtd">
<svg version="1.1" id="Capa_1" xmlns="http://www.w3.org/2000/svg" xmlns:xlink="http://www.w3.org/1999/xlink" x="0px" y="0px"
	 width="31.672px" height="33.081px" viewBox="0 0 31.672 33.081" style="enable-background:new 0 0 31.672 33.081;"
	 xml:space="preserve">
<path style="fill:#000000;" d="M9.659,1.832L9.487,1.625C8.402,0.541,6.979,0,5.557,0C4.133,0,2.711,0.541,1.626,1.629
	C-0.495,3.75-0.538,7.15,1.48,9.332C3.05,5.834,6.013,3.1,9.659,1.832z"/>
<path style="fill:#000000;" d="M30.045,2.174c-1.084-1.086-2.509-1.627-3.933-1.627c-1.422,0-2.844,0.541-3.928,1.627l-0.188,0.199
	c3.652,1.268,6.622,4.01,8.193,7.506C32.211,7.697,32.168,4.295,30.045,2.174z"/>
<path style="fill:#000000;" d="M25.932,7.504C23.146,4.717,19.49,3.32,15.836,3.32c-3.656,0-7.309,1.396-10.095,4.184
	c-5.579,5.576-5.579,14.615,0,20.195c0.035,0.033,0.072,0.062,0.105,0.096l-3.593,3.596c0,0-0.115,1.311,1.681,1.68l3.758-3.756
	c2.441,1.703,5.287,2.568,8.144,2.568s5.704-0.865,8.147-2.568l3.753,3.756c1.852,0.164,1.682-1.68,1.682-1.68l-3.591-3.596
	c0.032-0.033,0.068-0.062,0.104-0.096C31.51,22.119,31.51,13.08,25.932,7.504z M23.469,25.113c-0.05,0.043-0.098,0.09-0.146,0.137
	l-0.606,0.6l-0.775,0.539c-1.804,1.256-3.918,1.924-6.104,1.924c-2.188,0-4.298-0.668-6.102-1.924l-0.785-0.547L8.352,25.25
	c-0.047-0.047-0.096-0.09-0.145-0.135C6.223,23.1,5.128,20.434,5.128,17.6c0-2.859,1.115-5.551,3.136-7.572
	c2.025-2.023,4.713-3.137,7.572-3.137c2.861,0,5.549,1.111,7.571,3.137c2.023,2.021,3.138,4.711,3.138,7.572
	C26.545,20.441,25.447,23.115,23.469,25.113z M17.292,9.85c0-0.812-0.662-1.475-1.477-1.475c-0.819,0-1.48,0.662-1.48,1.475v6.617
	v2.953v0.006h2.955v-0.004l6.618,0.004c0.814,0,1.476-0.66,1.476-1.48c0-0.818-0.661-1.479-1.476-1.479H17.29L17.292,9.85z"/>
<g>
</g>
<g>
</g>
<g>
</g>
<g>
</g>
<g>
</g>
<g>
</g>
<g>
</g>
<g>
</g>
<g>
</g>
<g>
</g>
<g>
</g>
<g>
</g>
<g>
</g>
<g>
</g>
<g>
</g>
</svg>
