<?xml version="1.0" encoding="iso-8859-1"?>
<!-- Generator: Adobe Illustrator 16.0.0, SVG Export Plug-In . SVG Version: 6.00 Build 0)  -->
<!DOCTYPE svg PUBLIC "-//W3C//DTD SVG 1.1//EN" "http://www.w3.org/Graphics/SVG/1.1/DTD/svg11.dtd">
<svg version="1.1" id="Capa_1" xmlns="http://www.w3.org/2000/svg" xmlns:xlink="http://www.w3.org/1999/xlink" x="0px" y="0px"
	 width="32.548px" height="34.914px" viewBox="0 0 32.548 34.914" style="enable-background:new 0 0 32.548 34.914;"
	 xml:space="preserve">
<path style="fill-rule:evenodd;clip-rule:evenodd;" d="M32.438,16.512c0-2.9-0.772-5.617-2.106-7.976
	c0.662,0.019,1.242-0.149,1.646-0.554c1.177-1.178,0.472-3.791-1.575-5.838s-4.661-2.751-5.839-1.574
	c-0.418,0.42-0.589,1.024-0.556,1.717c-2.313-1.27-4.966-1.994-7.79-1.994c-2.493,0-4.847,0.578-6.957,1.585
	C9.217,1.359,9.051,0.904,8.718,0.57C7.541-0.606,4.926,0.096,2.879,2.145c-2.047,2.047-2.752,4.66-1.574,5.838
	c0.232,0.23,0.53,0.369,0.858,0.461C0.795,10.82,0,13.572,0,16.512c0,5.328,2.58,10.041,6.547,13l-3.435,3.435l1.97,1.968l3.902-3.9
	c2.18,1.09,4.632,1.719,7.234,1.719c2.604,0,5.055-0.629,7.233-1.719l3.901,3.9l1.969-1.968l-3.434-3.434
	C29.857,26.556,32.438,21.842,32.438,16.512z M2.691,17.201H5c0.381,0,0.689-0.309,0.689-0.689c0-0.379-0.309-0.688-0.689-0.688
	H2.691C3.041,8.883,8.596,3.33,15.537,2.984c0,0.01-0.007,0.02-0.007,0.031v2.521c0,0.381,0.309,0.689,0.688,0.689
	c0.381,0,0.689-0.309,0.689-0.689V3.016c0-0.012-0.006-0.021-0.006-0.031c6.941,0.346,12.495,5.898,12.845,12.84h-2.329
	c-0.381,0-0.689,0.309-0.689,0.688c0,0.381,0.309,0.689,0.689,0.689h2.329c-0.35,6.939-5.9,12.49-12.839,12.839v-2.419
	c0-0.379-0.309-0.689-0.689-0.689c-0.38,0-0.688,0.311-0.688,0.689v2.419C8.592,29.691,3.041,24.141,2.691,17.201z"/>
<path style="fill-rule:evenodd;clip-rule:evenodd;" d="M16.096,17.176c0.027,0.016,0.063,0.025,0.123,0.025h8.839
	c0.38,0,0.688-0.309,0.688-0.689c0-0.379-0.309-0.688-0.688-0.688h-8.149V8.361c0-0.379-0.309-0.688-0.689-0.686
	c-0.38-0.002-0.688,0.307-0.688,0.686l-0.001,8.15C15.531,16.85,15.777,17.116,16.096,17.176z"/>
<g>
</g>
<g>
</g>
<g>
</g>
<g>
</g>
<g>
</g>
<g>
</g>
<g>
</g>
<g>
</g>
<g>
</g>
<g>
</g>
<g>
</g>
<g>
</g>
<g>
</g>
<g>
</g>
<g>
</g>
</svg>
